HIERARCHY
ROOT Hips
{
	OFFSET 0.000000 0.000000 0.000000
	CHANNELS 6 Xposition Yposition Zposition Zrotation Yrotation Xrotation 
	JOINT LHipJoint
	{
		OFFSET 0.000000 0.000000 0.000000
		CHANNELS 3 Zrotation Yrotation Xrotation
		JOINT LeftUpLeg
		{
			OFFSET 1.363060 -1.794630 0.839290
			CHANNELS 3 Zrotation Yrotation Xrotation
			JOINT LeftLeg
			{
				OFFSET 2.448110 -6.726130 0.000000
				CHANNELS 3 Zrotation Yrotation Xrotation
				JOINT LeftFoot
				{
					OFFSET 2.562200 -7.039590 0.000000
					CHANNELS 3 Zrotation Yrotation Xrotation
					JOINT LeftToeBase
					{
						OFFSET 0.157640 -0.433110 2.322550
						CHANNELS 3 Zrotation Yrotation Xrotation
						End Site
						{
							OFFSET 0.000000 0.000000 0.000000
						}
					}
				}
			}
		}
	}
	JOINT RHipJoint
	{
		OFFSET 0.000000 0.000000 0.000000
		CHANNELS 3 Zrotation Yrotation Xrotation
		JOINT RightUpLeg
		{
			OFFSET -1.305520 -1.794630 0.839290
			CHANNELS 3 Zrotation Yrotation Xrotation
			JOINT RightLeg
			{
				OFFSET -2.542530 -6.985550 0.000000
				CHANNELS 3 Zrotation Yrotation Xrotation
				JOINT RightFoot
				{
					OFFSET -2.568260 -7.056230 0.000000
					CHANNELS 3 Zrotation Yrotation Xrotation
					JOINT RightToeBase
					{
						OFFSET -0.164730 -0.452590 2.363150
						CHANNELS 3 Zrotation Yrotation Xrotation
						End Site
						{
							OFFSET 0.000000 0.000000 0.000000
						}
					}
				}
			}
		}
	}
}
MOTION
Frames: 28
Frame Time: 0.008333
-11.764779 17.029670 -1.368736 1.376761 87.067639 12.529446 -11.356668 3.424480 -0.862806 -5.065652 6.835079 -3.529128 -0.747963 1.859173 32.322193 0.537741 1.837636 4.667766 0.302700 -0.000000 -80.299500 8.198111 -0.963255 3.810927 9.511833 9.514743 -29.966841 2.890698 0.033020 8.096295 0.408493 1.539813 7.013644 -0.242800 0.000000 -25.816800
-11.575007 17.044979 -1.347653 -8.027594 86.942618 2.988746 -11.574070 3.447164 -0.939460 -4.239543 7.528299 -4.836991 -0.457698 2.061646 35.250036 0.669971 2.122130 7.409283 0.366200 0.000000 -80.332000 8.085016 -1.034022 3.847777 10.137027 9.997133 -29.441748 2.926501 -0.039230 8.926859 0.389390 1.417877 6.730882 -0.281800 0.000000 -23.949600
-11.387999 17.061049 -1.326467 -17.252992 86.798158 -6.366371 -11.740786 3.420709 -1.019000 -3.465096 8.185086 -6.216728 -0.175432 2.228858 38.198874 0.850320 2.647062 10.133445 0.497200 0.000000 -78.724300 8.000018 -1.099106 3.871978 10.800289 10.354036 -28.896234 2.972579 -0.100880 9.701142 0.371206 1.347846 6.237490 -0.304300 -0.000000 -22.473100
-11.204053 17.077551 -1.305293 -26.067541 86.653354 -15.305902 -11.872476 3.336677 -1.098607 -2.757551 8.776723 -7.655632 0.088093 2.360363 41.156338 1.067325 3.445152 12.657517 0.739500 0.000000 -75.463200 7.925776 -1.170375 3.882999 11.489072 10.586545 -28.310103 3.028761 -0.150092 10.385559 0.349786 1.302591 5.568577 -0.317300 0.000000 -21.256200
-11.023332 17.094405 -1.283271 -33.862791 86.529279 -23.220661 -11.978841 3.204463 -1.171137 -2.175150 9.264549 -9.140846 0.322548 2.463649 44.093538 1.307611 4.554115 14.812985 1.134300 0.000000 -70.757101 7.857898 -1.248153 3.875052 12.155361 10.675274 -27.681612 3.090277 -0.186247 10.969448 0.326567 1.286667 4.770703 -0.319700 0.000000 -20.297500
-10.845770 17.111554 -1.260273 -40.798120 86.436167 -30.268120 -12.065652 3.038136 -1.233447 -1.727618 9.637635 -10.670519 0.524693 2.550178 46.985058 1.557135 5.964258 16.469273 1.691799 -0.000000 -65.076600 7.794348 -1.329401 3.849298 12.783327 10.634502 -27.000587 3.155198 -0.206304 11.425298 0.301078 1.283770 3.901244 -0.316599 0.000000 -19.510300
-10.671200 17.129085 -1.236040 -47.089080 86.384950 -36.659948 -12.134155 2.851592 -1.281919 -1.423472 9.882720 -12.240859 0.697747 2.629501 49.797784 1.805566 7.637540 17.560429 2.390300 0.000000 -59.046801 7.737893 -1.410450 3.808071 13.354826 10.479096 -26.265698 3.220234 -0.208736 11.732589 0.273559 1.283354 3.016592 -0.310800 0.000000 -18.836700
-10.499326 17.147140 -1.210467 -53.024698 86.382801 -42.679694 -12.185311 2.655096 -1.312697 -1.263854 9.987443 -13.847673 0.848456 2.707096 52.497458 2.046506 9.505656 18.081223 3.177900 0.000000 -53.268200 7.690989 -1.488870 3.755314 13.856055 10.228680 -25.482727 3.282394 -0.192997 11.876704 0.244596 1.277684 2.166072 -0.304700 0.000000 -18.226901
-10.329849 17.165908 -1.183482 -58.882499 86.433298 -48.600471 -12.220674 2.455940 -1.322040 -1.246524 9.942093 -15.482991 0.983493 2.784746 55.051868 2.275904 11.478526 18.066149 3.983200 -0.000000 -48.149900 7.655287 -1.563251 3.694790 14.275744 9.902300 -24.661319 3.338926 -0.159777 11.853366 0.215416 1.264295 1.388296 -0.298900 0.000001 -17.658200
-10.162347 17.185571 -1.155170 -64.964382 86.532308 -54.719305 -12.243780 2.257690 -1.307608 -1.359817 9.745889 -17.139186 1.107603 2.861613 57.432062 2.489975 13.452139 17.565896 4.726200 -0.000000 -43.830500 7.629155 -1.633555 3.631067 14.609716 9.523845 -23.813423 3.388247 -0.110224 11.664897 0.187018 1.240949 0.708455 -0.294400 -0.000001 -17.101200
-9.996543 17.206262 -1.125699 -71.494416 86.671737 -61.259751 -12.258596 2.062788 -1.268166 -1.590535 9.403978 -18.800477 1.222634 2.935443 59.606066 2.685252 15.326560 16.652297 5.336000 -0.000000 -40.337800 7.610174 -1.699768 3.566618 14.856573 9.113227 -22.947779 3.429141 -0.046391 11.323166 0.160758 1.210082 0.139933 -0.291300 -0.000000 -16.565100
-9.832186 17.228004 -1.095321 -78.634935 86.837332 -68.385342 -12.270031 1.872768 -1.205513 -1.918490 8.933579 -20.449033 1.327503 3.004744 61.545664 2.856004 17.002231 15.380734 5.749399 0.000000 -37.376700 7.593854 -1.761867 3.502678 15.020498 8.691198 -22.068588 3.461384 0.029622 10.844362 0.137519 1.173974 -0.316103 -0.289500 0.000000 -16.060401
-9.669048 17.250762 -1.064344 -86.427055 87.013812 -76.139043 -12.282196 1.688756 -1.119459 -2.322632 8.350006 -22.063629 1.419127 3.066593 63.214463 2.999670 18.415009 13.869841 5.947800 -0.000000 -35.111501 7.575402 -1.819269 3.440306 15.108691 8.277493 -21.178739 3.485247 0.115977 10.248127 0.117592 1.133817 -0.668003 -0.289400 0.000000 -15.593500
-9.507031 17.274340 -1.033039 -94.707197 87.186960 -84.363874 -12.296681 1.513965 -1.014245 -2.780118 7.680922 -23.620337 1.492761 3.121023 64.585607 3.111020 19.509124 12.200111 5.926501 -0.000000 -33.316800 7.552189 -1.869732 3.377419 15.131264 7.885930 -20.272369 3.501482 0.210816 9.555730 0.101413 1.093478 -0.929392 -0.290500 0.000000 -15.190401
-9.346073 17.298476 -1.001682 -103.153955 87.348741 -92.745093 -12.311525 1.352301 -0.893572 -3.269150 6.954037 -25.098649 1.543885 3.167852 65.636531 3.187113 20.261737 10.471357 5.715200 -0.000001 -31.939200 7.524617 -1.910345 3.312295 15.099349 7.526406 -19.342969 3.511031 0.312569 8.788399 0.089086 1.056106 -1.117554 -0.292401 -0.000000 -14.866300
-9.186270 17.322776 -0.970544 -111.318593 87.495756 -100.843672 -12.321643 1.207183 -0.765146 -3.765735 6.204265 -26.479193 1.569054 3.207791 66.356956 3.225364 20.667761 8.750902 5.353000 -0.000001 -30.796000 7.495770 -1.938088 3.241609 15.028842 7.204374 -18.377886 3.515330 0.419614 7.963271 0.080490 1.023785 -1.248880 -0.294600 0.000000 -14.631100
-9.027494 17.346770 -0.939742 -118.875208 87.635104 -108.337445 -12.319518 1.080132 -0.631454 -4.257730 5.453626 -27.755373 1.567415 3.238056 66.741269 3.229075 20.767291 7.144971 4.910500 0.000000 -30.067300 7.471887 -1.951753 3.165517 14.928945 6.917246 -17.378194 3.515277 0.530191 7.099279 0.075792 1.002049 -1.342320 -0.296100 0.000000 -14.477900
-8.869780 17.369938 -0.909494 -125.561569 87.772141 -114.969993 -12.299828 0.969917 -0.499790 -4.730001 4.732176 -28.924182 1.539499 3.257483 66.802476 3.200664 20.598523 5.675414 4.430000 0.000000 -29.463500 7.457077 -1.952310 3.083153 14.814243 6.660957 -16.339954 3.512195 0.642371 6.208494 0.074678 0.992537 -1.410559 -0.296300 -0.000000 -14.396700
-8.712973 17.391752 -0.879788 -131.381002 87.918932 -120.746118 -12.259222 0.873952 -0.371753 -5.182977 4.054441 -29.991070 1.487721 3.262939 66.554891 3.148264 20.234444 4.390743 3.964100 0.000000 -29.062301 7.455249 -1.942422 2.994890 14.688760 6.420420 -15.272113 3.506652 0.753874 5.307512 0.078033 1.005250 -1.466305 -0.293400 -0.000000 -14.374500
-8.556961 17.411732 -0.850705 -136.436921 88.084739 -125.769703 -12.197831 0.789328 -0.249198 -5.618669 3.433302 -30.965246 1.414698 3.253272 66.020849 3.080108 19.744725 3.288163 3.539200 0.000001 -28.746299 7.467208 -1.925333 2.900612 14.556312 6.179498 -14.185856 3.499490 0.862690 4.411160 0.086981 1.050588 -1.517430 -0.285699 -0.000001 -14.398799
-8.401488 17.429412 -0.822366 -140.840094 88.273377 -130.145957 -12.118153 0.712934 -0.131369 -6.036350 2.875776 -31.865655 1.323137 3.228488 65.228214 3.004381 19.192429 2.336292 3.163500 0.000000 -28.368900 7.490705 -1.904717 2.803158 14.423009 5.929918 -13.098909 3.492002 0.967781 3.531909 0.102087 1.134310 -1.568411 -0.272800 0.000000 -14.445400
-8.246308 17.444450 -0.794766 -144.798149 88.491068 -134.078203 -12.022657 0.644027 -0.015966 -6.440978 2.380510 -32.706663 1.215050 3.189545 64.199689 2.929044 18.634755 1.499418 2.837600 0.000001 -27.871900 7.524323 -1.882636 2.703014 14.288639 5.657668 -12.030391 3.485097 1.067836 2.686708 0.124979 1.268540 -1.621742 -0.253000 0.000000 -14.510200
-8.091185 17.456603 -0.767927 -148.480073 88.738516 -137.729411 -11.913856 0.582446 0.100679 -6.831199 1.940777 -33.502568 1.092069 3.137762 62.955094 2.860223 18.111821 0.736854 2.554900 0.000000 -27.241100 7.565648 -1.860361 2.601979 14.155608 5.357155 -10.999935 3.479998 1.162262 1.889937 0.156541 1.460118 -1.678005 -0.226000 0.000000 -14.588101
-7.935902 17.465776 -0.741928 -152.022456 89.013253 -141.229685 -11.793446 0.528591 0.222587 -7.201937 1.545388 -34.263963 0.955233 3.074311 61.508365 2.801660 17.644275 0.009536 2.305100 0.000000 -26.479400 7.612378 -1.838259 2.501984 14.027585 5.029589 -10.024937 3.477810 1.250672 1.155164 0.196902 1.711243 -1.737531 -0.192100 -0.000000 -14.681800
-7.780344 17.471934 -0.716857 -155.506942 89.309587 -144.655605 -11.662376 0.482701 0.353553 -7.543137 1.180366 -34.994943 0.805392 2.999611 59.866972 2.754792 17.235024 -0.710182 2.078200 -0.000000 -25.616400 7.662511 -1.816163 2.404878 13.909852 4.682420 -9.117866 3.479367 1.332835 0.492977 0.245178 2.017988 -1.801002 -0.152300 0.000000 -14.798800
-7.624396 17.475107 -0.692804 -158.873760 89.616111 -147.942056 -11.521645 0.442759 0.496683 -7.840357 0.830550 -35.695809 0.643818 2.912564 58.034937 2.718722 16.870455 -1.439060 1.865400 -0.000000 -24.659700 7.713505 -1.794838 2.313514 13.811108 4.331847 -8.287233 3.485151 1.408466 -0.089854 0.298876 2.367029 -1.871202 -0.108800 -0.000000 -14.942800
-7.468056 17.475369 -0.669931 -161.785779 89.912916 -150.746754 -11.374917 0.401027 0.655161 -8.075174 0.477969 -36.362974 0.475275 2.808712 56.009714 2.691934 16.536791 -2.133864 1.675100 -0.000001 -23.898700 7.760450 -1.778319 2.232523 13.742598 4.002797 -7.537073 3.495005 1.476817 -0.593845 0.353489 2.732620 -1.951664 -0.065200 0.000000 -15.121000
-7.311616 17.472879 -0.648011 15.503499 89.796753 26.664837 -11.221997 0.361972 0.826403 -8.249177 0.113280 -36.963984 0.298198 2.688920 53.782155 2.669867 16.203754 -2.813796 1.496700 0.000000 -23.127900 7.805405 -1.762718 2.152419 13.696392 3.685116 -6.851678 3.507824 1.536380 -1.007617 0.409137 3.119609 -2.051588 -0.020900 0.000000 -15.352800
